<?xml version="1.0" encoding="UTF-8" standalone="no"?>
<svg
   xmlns:dc="http://purl.org/dc/elements/1.1/"
   xmlns:cc="http://creativecommons.org/ns#"
   xmlns:rdf="http://www.w3.org/1999/02/22-rdf-syntax-ns#"
   xmlns:svg="http://www.w3.org/2000/svg"
   xmlns="http://www.w3.org/2000/svg"
   viewBox="262 208 808 635"
   height="55"
   width="55"
   xml:space="preserve"
   id="svg2"
   version="1.1"><metadata
     id="metadata8"><rdf:RDF><cc:Work
         rdf:about=""><dc:format>image/svg+xml</dc:format><dc:type
           rdf:resource="http://purl.org/dc/dcmitype/StillImage" /></cc:Work></rdf:RDF></metadata><defs
     id="defs6" /><g
     transform="matrix(1.3333333,0,0,-1.3333333,0,1066.6667)"
     id="g10"><g
       transform="scale(0.1)"
       id="g12"><path
         id="path14"
         style="fill:#ffff;fill-opacity:1;fill-rule:nonzero;stroke:none"
         d="m 4208.19,3554.93 c -16.5,-28.88 -87.45,-56.93 -87.45,-56.93 0,0 37.95,94.06 67.64,113.86 29.71,19.8 36.31,-28.05 19.81,-56.93 z m -298.13,-148.79 c 92.41,30.8 134.21,228.82 -17.6,202.42 -151.83,-26.4 -143.03,-169.42 -143.03,-169.42 -57.2,213.43 248.63,283.83 272.84,151.82 27.16,-148.14 -112.21,-184.82 -112.21,-184.82 z m 2994.33,404.67 c -0.24,-2.44 -0.41,-4.9 -0.65,-7.34 -224.94,482.67 -905.93,547.63 -1042.04,672 -64.41,58.87 28.61,72.61 63.81,55.01 35.22,-17.6 107.82,-103.41 127.62,-66.01 19.8,37.4 -83.6,103.41 -39.6,105.62 44,2.2 198.02,17.05 180.42,57.2 -22.96,52.4 -271.97,-34.74 -185.37,27.5 98.54,70.84 158.42,139.72 105.61,148.53 -52.81,8.79 -151.82,-151.28 -171.62,-120.47 -19.8,30.8 20.41,182.06 -19.25,182.07 -64.92,0.02 -25.31,-201.32 -78.12,-203.52 -52.79,-2.21 -232.13,90.36 -258.53,18.7 -26.39,-71.66 90.21,-239.83 90.21,-239.83 -173.82,37.4 -379.54,66 -761.29,-61.61 -350.52,-117.17 -437.86,-270.64 -497.27,-270.64 -59.41,0 -156.22,123.22 -200.23,154.03 -44,30.8 -217.83,26.4 -235.43,46.2 -17.6,19.8 160.62,52.81 127.62,116.62 -33,63.8 -85.81,-66.01 -145.22,-59.41 -59.4,6.6 11.14,202.31 -41.8,204.63 -88.01,3.85 6.6,-195.28 -35.2,-210.68 -41.81,-15.4 -132.03,145.22 -178.23,96.26 -53.19,-56.37 206.83,-127.62 107.81,-176.02 -99,-48.41 -168.64,-104.61 -122.43,-122.22 46.2,-17.6 102.63,87.01 168.64,69.41 66.01,-17.6 182.63,-13.2 239.83,-55.01 57.21,-41.8 105.61,-156.22 105.61,-156.22 -154.01,11 -369.64,-123.21 -565.47,-123.21 -195.82,0 -158.42,-145.22 -158.42,-145.22 l 55.01,52.81 c 0,0 -138.62,-213.43 -224.44,-334.45 -85.8,-121.01 -19.79,-171.62 -19.79,-171.62 46.2,-83.61 376.25,4.4 376.25,4.4 -154.02,-94.61 -354.25,-74.81 -354.25,-74.81 242.03,-55.01 490.66,101.21 561.07,123.22 70.41,22 415.85,123.21 448.85,123.21 33.02,0 209.03,-68.21 213.44,-94.61 4.4,-26.4 -110.02,-195.83 -213.44,-198.03 -103.41,-2.2 -222.22,36.86 -217.27,-20.9 4.67,-54.48 203.53,14.3 194.72,-67.66 -4.24,-39.44 -248.07,-39.05 -237.07,-91.86 11,-52.81 224.43,46.21 242.02,13.2 17.6,-33 -174.91,-130.91 -115.5,-196.92 59.4,-66.01 119.91,157.32 172.72,157.32 52.8,0 79.21,-171.63 125.41,-136.42 46.2,35.21 -67.11,149.07 -37.37,261.24 18.9,71.3 319.01,216.22 316.8,293.23 -2.19,77.01 -226.62,211.23 -174.92,189.23 51.71,-22.01 370.75,24.2 513.78,59.4 143.01,35.21 520.57,200.34 520.57,200.34 55.84,143.35 102.1,186.91 102.1,186.91 0,0 -99.02,-167.22 -77.01,-266.23 22.01,-99.01 242.04,-171.62 202.42,-237.63 -39.6,-66.01 -180.41,-61.61 -118.81,-132.02 61.61,-70.41 154.02,88.01 182.63,61.61 28.6,-26.4 -118.81,-255.23 -30.81,-266.24 88.02,-11 79.21,259.64 116.62,255.24 37.4,-4.4 191.42,-239.83 222.22,-169.42 30.81,70.4 -178.22,193.62 -173.82,233.22 4.41,39.61 255.24,-50.6 256.33,17.61 1.1,68.21 -144.12,46.2 -229.92,59.41 -85.81,13.2 -165.02,136.41 -198.04,187.02 -32.99,50.61 81.42,198.02 81.42,198.02 0,0 625.05,6.16 763.65,-433.06 40.87,-129.48 20.57,-267.73 -18.81,-387.45 -313.67,-626.53 -960.97,-1057 -1709.02,-1058.2 -1060.96,-1.71 -1915.77,850.75 -1916.86,1911.71 -1.08,1057.83 856.13,1915.72 1913.72,1915.72 869.56,0 1603.54,-580.01 1836.48,-1374.21 l -2.94,23.14 2.94,-23.14 c 46.34,-157.98 72.9,-324.41 76.7,-496.47 60.58,-66.62 275.52,-337.19 243.74,-791.69 81.4,234.54 125.76,486.4 125.76,748.65 0,1257.59 -1026.93,2283.67 -2284.52,2282.68 -1260.85,-1 -2282.47,-1024.24 -2280.84,-2285.7 1.63,-1256.19 1028.31,-2280.64 2284.5,-2279.66 706.72,0.56 1338.27,322.27 1756.61,827.07 207.31,250.15 306.1,574.97 263.33,897.03 -20.53,154.61 -68.62,278.18 -117.37,369.39" /></g></g></svg>
