<?xml version="1.0" standalone="no"?>
<!DOCTYPE svg PUBLIC "-//W3C//DTD SVG 20010904//EN"
 "http://www.w3.org/TR/2001/REC-SVG-20010904/DTD/svg10.dtd">
<svg version="1.0" xmlns="http://www.w3.org/2000/svg"
 width="700.000000pt" height="700.000000pt" viewBox="0 0 700.000000 700.000000"
 preserveAspectRatio="xMidYMid meet">
<metadata>
Created by potrace 1.14, written by Peter Selinger 2001-2017
</metadata>
<g transform="translate(0.000000,700.000000) scale(0.100000,-0.100000)"
fill="#000000" stroke="none">
<path d="M3338 6065 c-1 -1 -38 -5 -80 -9 -478 -40 -951 -225 -1352 -529 -108
-81 -140 -110 -282 -253 -175 -176 -304 -348 -428 -570 -131 -235 -243 -550
-282 -789 -3 -16 -9 -51 -14 -76 -25 -124 -35 -555 -16 -694 4 -33 9 -73 11
-90 6 -48 15 -93 40 -205 151 -661 549 -1235 1120 -1614 555 -369 1215 -512
1874 -405 461 74 879 263 1256 568 83 67 274 256 330 326 22 28 42 52 45 55
23 21 87 123 133 210 108 203 154 388 154 622 1 155 -13 257 -53 388 -20 65
-71 187 -91 215 -8 11 -31 48 -51 82 -131 218 -357 370 -787 528 -289 106
-316 118 -358 157 -33 32 -38 40 -27 53 28 34 98 16 160 -41 14 -12 37 -25 51
-29 42 -10 43 18 4 69 -19 25 -31 47 -27 50 4 2 28 7 52 11 102 15 116 18 142
31 17 9 25 20 22 28 -10 26 -44 28 -184 12 l-55 -7 35 33 c19 18 46 42 60 53
42 33 80 89 71 104 -16 24 -58 3 -128 -64 -37 -36 -73 -65 -81 -65 -10 0 -12
22 -11 94 1 98 -3 116 -27 116 -18 0 -31 -34 -39 -97 -16 -122 -20 -133 -53
-133 -15 0 -65 12 -111 25 -103 30 -142 32 -166 5 -27 -30 -13 -98 40 -198 25
-46 45 -85 45 -86 0 -1 -46 5 -102 14 -130 21 -333 19 -448 -5 -14 -3 -35 -7
-47 -10 -13 -2 -65 -15 -116 -29 -288 -79 -434 -148 -640 -304 -100 -76 -119
-72 -252 57 -33 32 -69 63 -80 68 -25 13 -91 25 -204 37 -66 8 -71 21 -15 46
80 37 106 59 102 88 -5 40 -32 38 -85 -6 -94 -77 -108 -68 -108 67 0 106 -8
128 -44 116 -18 -5 -21 -14 -20 -58 0 -29 3 -72 7 -97 16 -95 -5 -103 -87 -32
-88 76 -131 90 -131 43 0 -19 32 -50 109 -105 67 -49 67 -48 -56 -126 -67 -42
-94 -77 -72 -91 19 -12 46 -2 99 36 56 40 76 45 133 34 25 -4 66 -11 92 -14
98 -11 138 -27 180 -70 34 -37 101 -143 93 -150 -2 -1 -30 -5 -63 -9 -59 -6
-112 -20 -287 -77 -101 -33 -215 -56 -308 -63 -36 -2 -78 -10 -94 -16 -32 -12
-75 -54 -77 -73 0 -7 -3 -24 -5 -39 -6 -34 8 -36 37 -5 31 32 21 16 -133 -215
-120 -179 -140 -213 -145 -257 -5 -48 -4 -52 30 -86 35 -35 43 -37 127 -38 57
-1 179 14 233 28 59 16 62 16 33 -1 -66 -37 -162 -62 -268 -67 -20 -2 -39 -5
-43 -8 -6 -7 160 -3 190 4 103 25 161 44 253 84 136 58 162 67 302 108 261 75
351 96 383 90 55 -12 181 -67 205 -89 l23 -22 -39 -60 c-45 -69 -100 -120
-158 -145 -35 -16 -56 -18 -130 -12 -154 11 -192 4 -168 -35 9 -13 31 -18 102
-22 94 -5 116 -15 110 -46 -2 -15 -24 -24 -103 -42 -118 -27 -165 -46 -165
-66 0 -24 49 -24 145 -2 11 2 40 9 64 14 43 10 71 7 71 -8 0 -4 -25 -31 -55
-61 -77 -75 -98 -110 -85 -143 9 -26 24 -31 53 -20 9 3 41 46 73 95 76 117 94
117 154 -1 28 -55 51 -77 71 -64 16 9 10 51 -17 121 -58 155 -46 192 104 301
165 121 221 170 228 199 11 41 -22 90 -108 162 -43 35 -77 66 -75 67 1 2 39 4
84 5 74 2 323 32 362 44 9 2 32 7 51 10 88 15 281 78 425 139 17 7 82 35 146
62 l115 48 28 66 c29 65 76 143 76 124 0 -5 -4 -14 -10 -20 -19 -19 -67 -170
-67 -214 -1 -64 27 -106 109 -170 160 -124 167 -156 47 -209 -25 -11 -53 -29
-63 -40 -18 -19 -18 -22 -2 -46 27 -41 89 -32 145 23 8 7 25 20 38 29 42 28
47 4 18 -78 -52 -145 -59 -180 -42 -206 13 -21 51 -14 70 12 16 22 37 95 64
220 5 23 15 41 24 43 10 2 50 -34 99 -88 82 -90 123 -121 148 -113 16 6 15 37
-2 71 -8 15 -53 64 -100 109 -47 46 -86 90 -86 99 0 15 8 16 68 9 37 -4 101
-8 142 -9 74 -1 75 -1 78 25 3 22 -3 29 -35 41 -21 9 -69 16 -108 17 -155 4
-198 26 -291 148 -51 67 -62 88 -59 113 5 37 30 91 69 149 l29 43 86 -6 c335
-23 614 -164 741 -373 56 -92 79 -189 76 -318 -5 -179 -35 -263 -170 -470
-335 -513 -868 -865 -1471 -970 -127 -22 -220 -30 -370 -30 -195 0 -330 13
-475 46 -25 6 -54 12 -65 15 -128 26 -379 122 -503 192 -41 23 -76 42 -79 42
-2 0 -50 30 -106 67 -384 253 -692 639 -850 1063 -35 94 -91 293 -102 360 -3
19 -7 46 -10 60 -26 135 -35 378 -22 540 45 527 264 1003 634 1375 109 111
137 135 237 210 164 123 357 230 541 299 55 21 110 42 122 46 23 10 205 55
258 64 17 3 39 8 50 10 18 3 87 12 180 22 55 6 289 6 360 -1 287 -25 533 -94
790 -220 379 -185 685 -461 910 -820 107 -170 217 -427 261 -610 22 -89 45
-212 50 -259 3 -34 8 -64 10 -67 2 -3 4 -42 5 -86 l1 -81 57 -79 c155 -216
224 -437 231 -738 l2 -90 24 75 c28 85 59 213 69 280 4 24 8 47 10 50 2 3 8
50 14 105 7 55 14 118 17 140 5 50 5 347 -1 400 -2 22 -6 65 -9 95 -44 464
-260 973 -580 1370 -81 101 -282 300 -386 383 -83 66 -284 207 -296 207 -3 0
-18 9 -33 19 -38 27 -231 123 -331 164 -203 84 -453 150 -645 172 -33 4 -69 9
-80 12 -22 5 -431 13 -437 8z m-1010 -3044 c19 -8 35 -24 41 -43 26 -74 3
-150 -59 -197 l-34 -26 26 35 c47 64 54 127 16 167 -21 22 -29 25 -78 20 -60
-5 -108 -29 -138 -68 -22 -28 -43 -85 -35 -93 4 -3 1 -6 -4 -6 -16 0 -8 82 11
119 43 83 167 128 254 92z m268 -46 c11 -28 -6 -64 -43 -90 -52 -35 -65 -33
-46 8 21 43 62 97 74 97 5 0 12 -7 15 -15z"/>
</g>
</svg>
